<svg width="56" height="42" viewBox="0 0 56 42" fill="none" xmlns="http://www.w3.org/2000/svg">
<path d="M11.45 14.625C11 14.8083 10.475 14.95 9.875 15.05C9.29167 15.1333 8.78333 15.175 8.35 15.175C7.71667 15.175 7.125 15.0833 6.575 14.9C6.04167 14.7 5.575 14.4 5.175 14C4.775 13.5833 4.45833 13.05 4.225 12.4C4.00833 11.7333 3.9 10.925 3.9 9.975C3.9 9.275 3.95833 8.61667 4.075 8C4.20833 7.38333 4.425 6.85 4.725 6.4C5.025 5.93333 5.40833 5.56667 5.875 5.3C6.35833 5.03333 6.95 4.9 7.65 4.9C7.96667 4.9 8.35833 4.94167 8.825 5.025V4.625C8.825 3.99167 8.625 3.45833 8.225 3.025C7.825 2.575 7.24167 2.35 6.475 2.35C5.925 2.35 5.4 2.46667 4.9 2.7C4.41667 2.93333 3.99167 3.34167 3.625 3.925C3.275 4.50833 2.99167 5.29167 2.775 6.275C2.575 7.24167 2.475 8.46667 2.475 9.95C2.475 11.1167 2.55833 12.15 2.725 13.05C2.90833 13.95 3.20833 14.7083 3.625 15.325C4.05833 15.925 4.625 16.3833 5.325 16.7C6.04167 17.0167 6.925 17.175 7.975 17.175C8.75833 17.175 9.375 17.1333 9.825 17.05C10.275 16.9667 10.5667 16.9 10.7 16.85L10.975 19.025C10.6917 19.0917 10.4333 19.1417 10.2 19.175C9.96667 19.225 9.73333 19.2583 9.5 19.275C9.26667 19.3083 9.025 19.3333 8.775 19.35C8.54167 19.3667 8.275 19.375 7.975 19.375C6.875 19.375 5.85 19.225 4.9 18.925C3.95 18.625 3.125 18.1 2.425 17.35C1.74167 16.6167 1.2 15.6417 0.8 14.425C0.4 13.1917 0.2 11.65 0.2 9.8C0.2 8 0.366667 6.49167 0.7 5.275C1.05 4.04167 1.51667 3.05 2.1 2.3C2.68333 1.53333 3.35 0.991666 4.1 0.674999C4.85 0.341666 5.64167 0.175 6.475 0.175C7.15833 0.175 7.8 0.283333 8.4 0.5C9 0.699999 9.525 1.025 9.975 1.475C10.425 1.925 10.7833 2.51667 11.05 3.25C11.3167 3.96667 11.45 4.84167 11.45 5.875V14.625ZM6.525 9.825C6.525 10.1417 6.54167 10.4667 6.575 10.8C6.625 11.1333 6.70833 11.4333 6.825 11.7C6.94167 11.9667 7.1 12.1917 7.3 12.375C7.51667 12.5417 7.79167 12.625 8.125 12.625C8.34167 12.625 8.575 12.6 8.825 12.55V7.55C8.69167 7.51667 8.56667 7.49167 8.45 7.475C8.33333 7.45833 8.21667 7.45 8.1 7.45C7.78333 7.45 7.525 7.525 7.325 7.675C7.125 7.80833 6.96667 7.99167 6.85 8.225C6.73333 8.44167 6.65 8.69167 6.6 8.975C6.55 9.25833 6.525 9.54167 6.525 9.825Z" fill="#69B0E3"/>
<path d="M26.475 11.325C26.475 12.2583 26.3167 13.0417 26 13.675C25.6833 14.2917 25.25 14.7917 24.7 15.175C24.1667 15.5417 23.525 15.8083 22.775 15.975C22.0417 16.125 21.25 16.2 20.4 16.2C19.7167 16.2 19.0083 16.1583 18.275 16.075C17.5417 16.0083 16.8167 15.9 16.1 15.75V0.725C16.6833 0.624999 17.325 0.541666 18.025 0.474999C18.725 0.391665 19.4167 0.349999 20.1 0.349999C21.2667 0.349999 22.2167 0.474999 22.95 0.725C23.6833 0.958333 24.2583 1.275 24.675 1.675C25.0917 2.05833 25.375 2.49167 25.525 2.975C25.675 3.45833 25.75 3.94167 25.75 4.425C25.75 5.15833 25.5667 5.80833 25.2 6.375C24.85 6.94167 24.375 7.39167 23.775 7.725C24.825 8.10833 25.5333 8.625 25.9 9.275C26.2833 9.925 26.475 10.6083 26.475 11.325ZM19.175 9.225V13.425C19.3917 13.4583 19.625 13.4833 19.875 13.5C20.1417 13.5167 20.4 13.525 20.65 13.525C21 13.525 21.3417 13.5 21.675 13.45C22.0083 13.3833 22.3 13.275 22.55 13.125C22.8167 12.9583 23.0333 12.7333 23.2 12.45C23.3667 12.15 23.45 11.775 23.45 11.325C23.45 10.575 23.2083 10.0417 22.725 9.725C22.2583 9.39167 21.625 9.225 20.825 9.225H19.175ZM20.375 6.675C21.1583 6.675 21.75 6.50833 22.15 6.175C22.55 5.825 22.75 5.35 22.75 4.75C22.75 4.38333 22.6917 4.09167 22.575 3.875C22.4583 3.64167 22.3 3.46667 22.1 3.35C21.9 3.21667 21.6667 3.13333 21.4 3.1C21.1333 3.05 20.8583 3.025 20.575 3.025C20.3417 3.025 20.1 3.03333 19.85 3.05C19.6 3.06667 19.375 3.09167 19.175 3.125V6.675H20.375ZM41.125 0.525V16H38.05V9.175H33.95V16H30.875V0.525H33.95V6.625H38.05V0.525H41.125ZM46.1 16V13.45H49.475V3.075H46.1V0.525H55.925V3.075H52.575V13.45H55.925V16H46.1ZM12.6 25.35C13.4833 25.35 14.2833 25.45 15 25.65C15.7167 25.85 16.3333 26.1583 16.85 26.575C17.3667 26.9917 17.7583 27.525 18.025 28.175C18.3083 28.8083 18.45 29.5583 18.45 30.425C18.45 31.325 18.2667 32.1417 17.9 32.875C17.5333 33.6083 16.925 34.1667 16.075 34.55C16.3583 34.9833 16.6583 35.4667 16.975 36C17.2917 36.5167 17.6 37.0667 17.9 37.65C18.2 38.2167 18.4833 38.7917 18.75 39.375C19.0333 39.9417 19.275 40.4833 19.475 41H16.25C15.8667 40 15.4167 39.0417 14.9 38.125C14.4 37.1917 13.8583 36.25 13.275 35.3H11.675V41H8.6V25.75C8.9 25.6833 9.225 25.625 9.575 25.575C9.94167 25.5083 10.3083 25.4667 10.675 25.45C11.0417 25.4167 11.3917 25.3917 11.725 25.375C12.0583 25.3583 12.35 25.35 12.6 25.35ZM15.325 30.4C15.325 29.5833 15.075 28.9833 14.575 28.6C14.075 28.2167 13.4167 28.025 12.6 28.025C12.4833 28.025 12.3417 28.0333 12.175 28.05C12.0083 28.05 11.8417 28.0667 11.675 28.1V32.75H12.35C13.4 32.75 14.1583 32.55 14.625 32.15C15.0917 31.7333 15.325 31.15 15.325 30.4ZM31.225 41L30.5 37.425H26.375L25.675 41H22.475C23.2083 37.95 23.95 35.175 24.7 32.675C25.45 30.1583 26.175 27.775 26.875 25.525H30.225C30.9583 27.7917 31.6833 30.2 32.4 32.75C33.1333 35.2833 33.8417 38.0333 34.525 41H31.225ZM28.475 28.525C28.3083 29.1083 28.15 29.6667 28 30.2C27.8667 30.7167 27.7333 31.2333 27.6 31.75C27.4833 32.25 27.3667 32.7583 27.25 33.275C27.15 33.7917 27.05 34.325 26.95 34.875H29.975C29.875 34.325 29.775 33.7917 29.675 33.275C29.575 32.7583 29.4583 32.25 29.325 31.75C29.2083 31.2333 29.075 30.7167 28.925 30.2C28.7917 29.6667 28.6417 29.1083 28.475 28.525ZM48.2 35.825C48.2 36.575 48.1 37.2833 47.9 37.95C47.7167 38.6167 47.4 39.2 46.95 39.7C46.5167 40.2 45.95 40.6 45.25 40.9C44.55 41.1833 43.7 41.325 42.7 41.325C41.65 41.325 40.775 41.1917 40.075 40.925C39.375 40.6583 38.7833 40.3333 38.3 39.95L39.475 37.5C39.8917 37.7667 40.35 38.025 40.85 38.275C41.3667 38.525 41.8917 38.65 42.425 38.65C43.225 38.65 43.8667 38.4417 44.35 38.025C44.85 37.5917 45.1 36.8 45.1 35.65V28.075H39.925V25.525H48.2V35.825Z" fill="white"/>
</svg>
